<svg width="21.999999999999996" height="21.999999999999996" xmlns="http://www.w3.org/2000/svg">
 <!-- Created with Method Draw - http://github.com/duopixel/Method-Draw/ -->

 <g>
  <title>background</title>
  <rect fill="none" id="canvas_background" height="24" width="24" y="-1" x="-1"/>
 </g>
 <g>
  <title>Layer 1</title>
  <path stroke="#000" id="svg_3" d="m20.89489,18.18495l-5.31945,-5.24968c0.71662,-1.16626 1.13693,-2.53068 1.13765,-3.99375c-0.00071,-4.26772 -3.50255,-7.7244 -7.82468,-7.72585c-4.32289,0.00145 -7.82616,3.45813 -7.82616,7.72513c0,4.26483 3.50327,7.72137 7.82616,7.72137c1.48327,0 2.86574,-0.41462 4.04743,-1.12191l5.32102,5.25049l2.63803,-2.60579zm-16.84745,-9.24415c0.00448,-2.63891 2.16704,-4.77239 4.84024,-4.77826c2.67167,0.00588 4.83572,2.13936 4.84021,4.77826c-0.00525,2.63745 -2.16854,4.77096 -4.84021,4.77681c-2.67319,-0.00585 -4.83576,-2.13937 -4.84024,-4.77681z" stroke-width="1.5" fill="#fff"/>
 </g>
</svg>