<svg width="22" height="22" xmlns="http://www.w3.org/2000/svg">
 <!-- Created with Method Draw - http://github.com/duopixel/Method-Draw/ -->
 <g>
  <title>background</title>
  <rect fill="none" id="canvas_background" height="24" width="24" y="-1" x="-1"/>
 </g>
 <g>
  <title>Layer 1</title>
  <path stroke="#000" id="svg_1" d="m14.54085,8.13736c0,0 0.61901,-2.77231 0,-3.71144c-0.6196,-0.93911 -0.86666,-1.56461 -2.22923,-2.01241s-0.86598,-0.35866 -1.8568,-0.31286c-0.99062,0.045 -1.81656,0.62549 -1.81656,0.93835c0,0 -0.61898,0.04503 -0.86605,0.31351c-0.24803,0.2686 -0.66054,1.5196 -0.66054,1.83323s0.20626,2.41527 0.41252,2.86234l-0.24563,0.08929c-0.20624,2.59304 0.82535,2.9065 0.82535,2.9065c0.37097,2.41527 0.74276,1.38693 0.74276,2.01236s-0.3718,0.40292 -0.3718,0.40292s-0.32942,0.98334 -1.15467,1.34111c-0.82521,0.35702 -5.40637,2.27951 -5.7789,2.68228c-0.37253,0.40366 -0.33026,2.28114 -0.33026,2.28114l19.64461,0c0,0 0.043,-1.87748 -0.32966,-2.28114c-0.37324,-0.40363 -4.95425,-2.32526 -5.77951,-2.68228c-0.82523,-0.35777 -1.15474,-1.34111 -1.15474,-1.34111s-0.37179,0.22281 -0.37179,-0.40292s0.37179,0.40292 0.74369,-2.01236c0,0 1.03078,-0.31346 0.82523,-2.9065l-0.24802,0z" fill-opacity="null" stroke-opacity="null" stroke-width="1.5" fill="#fff"/>
 </g>
</svg>